<svg width="74" height="74" viewBox="0 0 74 74" fill="none" xmlns="http://www.w3.org/2000/svg">
<circle cx="37" cy="37" r="36" fill="#525FE1" fill-opacity="0.1" stroke="#525FE1" stroke-width="2"/>
<path d="M33 34.3333H33.0133M41 34.3333H41.0133M33.6667 41C34.1012 41.4435 34.6198 41.7958 35.1922 42.0363C35.7645 42.2768 36.3791 42.4007 37 42.4007C37.6209 42.4007 38.2355 42.2768 38.8078 42.0363C39.3802 41.7958 39.8988 41.4435 40.3333 41M25 37C25 38.5759 25.3104 40.1363 25.9134 41.5922C26.5165 43.0481 27.4004 44.371 28.5147 45.4853C29.629 46.5996 30.9519 47.4835 32.4078 48.0866C33.8637 48.6896 35.4241 49 37 49C38.5759 49 40.1363 48.6896 41.5922 48.0866C43.0481 47.4835 44.371 46.5996 45.4853 45.4853C46.5996 44.371 47.4835 43.0481 48.0866 41.5922C48.6896 40.1363 49 38.5759 49 37C49 35.4241 48.6896 33.8637 48.0866 32.4078C47.4835 30.9519 46.5996 29.629 45.4853 28.5147C44.371 27.4004 43.0481 26.5165 41.5922 25.9134C40.1363 25.3104 38.5759 25 37 25C35.4241 25 33.8637 25.3104 32.4078 25.9134C30.9519 26.5165 29.629 27.4004 28.5147 28.5147C27.4004 29.629 26.5165 30.9519 25.9134 32.4078C25.3104 33.8637 25 35.4241 25 37Z" stroke="#525FE1" stroke-width="2" stroke-linecap="round" stroke-linejoin="round"/>
</svg>
