<svg width="74" height="74" viewBox="0 0 74 74" fill="none" xmlns="http://www.w3.org/2000/svg">
<circle cx="37" cy="37" r="36" fill="#FD8D14" fill-opacity="0.1" stroke="#FD8D14" stroke-width="2"/>
<path d="M25 49H49M25 30.3333V31.6667C25 32.7275 25.4214 33.7449 26.1716 34.4951C26.9217 35.2452 27.9391 35.6667 29 35.6667C30.0609 35.6667 31.0783 35.2452 31.8284 34.4951C32.5786 33.7449 33 32.7275 33 31.6667M25 30.3333H49M25 30.3333L27.6667 25H46.3333L49 30.3333M33 31.6667V30.3333M33 31.6667C33 32.7275 33.4214 33.7449 34.1716 34.4951C34.9217 35.2452 35.9391 35.6667 37 35.6667C38.0609 35.6667 39.0783 35.2452 39.8284 34.4951C40.5786 33.7449 41 32.7275 41 31.6667M41 31.6667V30.3333M41 31.6667C41 32.7275 41.4214 33.7449 42.1716 34.4951C42.9217 35.2452 43.9391 35.6667 45 35.6667C46.0609 35.6667 47.0783 35.2452 47.8284 34.4951C48.5786 33.7449 49 32.7275 49 31.6667V30.3333M27.6667 49V35.4667M46.3333 49V35.4667M33 49V43.6667C33 42.9594 33.281 42.2811 33.781 41.781C34.2811 41.281 34.9594 41 35.6667 41H38.3333C39.0406 41 39.7189 41.281 40.219 41.781C40.719 42.2811 41 42.9594 41 43.6667V49" stroke="#FD8D14" stroke-width="2" stroke-linecap="round" stroke-linejoin="round"/>
</svg>
