<svg width="74" height="74" viewBox="0 0 74 74" fill="none" xmlns="http://www.w3.org/2000/svg">
<circle cx="37" cy="37" r="36" fill="#006044" fill-opacity="0.1" stroke="#006044" stroke-width="2"/>
<path d="M31.6667 49.0002H42.3333M37 43.6668V49.0002M37 43.6668C38.7681 43.6668 40.4638 42.9644 41.714 41.7142C42.9643 40.464 43.6667 38.7683 43.6667 37.0002V26.3335H30.3333V37.0002C30.3333 38.7683 31.0357 40.464 32.286 41.7142C33.5362 42.9644 35.2319 43.6668 37 43.6668ZM25 33.0002C25 33.7074 25.281 34.3857 25.781 34.8858C26.2811 35.3859 26.9594 35.6668 27.6667 35.6668C28.3739 35.6668 29.0522 35.3859 29.5523 34.8858C30.0524 34.3857 30.3333 33.7074 30.3333 33.0002C30.3333 32.2929 30.0524 31.6146 29.5523 31.1145C29.0522 30.6144 28.3739 30.3335 27.6667 30.3335C26.9594 30.3335 26.2811 30.6144 25.781 31.1145C25.281 31.6146 25 32.2929 25 33.0002ZM43.6667 33.0002C43.6667 33.7074 43.9476 34.3857 44.4477 34.8858C44.9478 35.3859 45.6261 35.6668 46.3333 35.6668C47.0406 35.6668 47.7189 35.3859 48.219 34.8858C48.719 34.3857 49 33.7074 49 33.0002C49 32.2929 48.719 31.6146 48.219 31.1145C47.7189 30.6144 47.0406 30.3335 46.3333 30.3335C45.6261 30.3335 44.9478 30.6144 44.4477 31.1145C43.9476 31.6146 43.6667 32.2929 43.6667 33.0002Z" stroke="#006044" stroke-width="2" stroke-linecap="round" stroke-linejoin="round"/>
</svg>
