<svg width="74" height="74" viewBox="0 0 74 74" fill="none" xmlns="http://www.w3.org/2000/svg">
<circle cx="37" cy="37" r="36" fill="#525FE1" fill-opacity="0.1" stroke="#525FE1" stroke-width="2"/>
<path d="M27.6667 43.6667C27.6667 44.374 27.9476 45.0523 28.4477 45.5524C28.9478 46.0525 29.6261 46.3334 30.3333 46.3334C31.0406 46.3334 31.7189 46.0525 32.219 45.5524C32.719 45.0523 33 44.374 33 43.6667M27.6667 43.6667C27.6667 42.9595 27.9476 42.2812 28.4477 41.7811C28.9478 41.281 29.6261 41.0001 30.3333 41.0001C31.0406 41.0001 31.7189 41.281 32.219 41.7811C32.719 42.2812 33 42.9595 33 43.6667M27.6667 43.6667H25V29.0001C25 28.6465 25.1405 28.3073 25.3905 28.0573C25.6406 27.8072 25.9797 27.6667 26.3333 27.6667H38.3333V35.6667H31.6667M33 43.6667H41M41 43.6667C41 44.374 41.281 45.0523 41.781 45.5524C42.2811 46.0525 42.9594 46.3334 43.6667 46.3334C44.3739 46.3334 45.0522 46.0525 45.5523 45.5524C46.0524 45.0523 46.3333 44.374 46.3333 43.6667M41 43.6667C41 42.9595 41.281 42.2812 41.781 41.7811C42.2811 41.281 42.9594 41.0001 43.6667 41.0001C44.3739 41.0001 45.0522 41.281 45.5523 41.7811C46.0524 42.2812 46.3333 42.9595 46.3333 43.6667M46.3333 43.6667H49V35.6667L45 29.0001H38.3333M31.6667 35.6667L34.3333 38.3334M31.6667 35.6667L34.3333 33.0001" stroke="#525FE1" stroke-width="2" stroke-linecap="round" stroke-linejoin="round"/>
</svg>
