<svg width="74" height="74" viewBox="0 0 74 74" fill="none" xmlns="http://www.w3.org/2000/svg">
<circle cx="37" cy="37" r="36" fill="#FD8D14" fill-opacity="0.1" stroke="#FD8D14" stroke-width="2"/>
<path d="M48.9 38.5507C49.121 36.858 48.9783 35.1377 48.4813 33.5047C47.9844 31.8716 47.1447 30.3634 46.0183 29.0808C44.8919 27.7982 43.5048 26.7707 41.9496 26.067C40.3945 25.3632 38.707 24.9995 37 25C33.8174 25 30.7652 26.2643 28.5147 28.5147C26.2643 30.7652 25 33.8174 25 37C25 40.1826 26.2643 43.2348 28.5147 45.4853C30.7652 47.7357 33.8174 49 37 49M33 34.3333H33.0133M41 34.3333H41.0133M33.6667 41C34.544 41.8533 35.7467 42.3333 37 42.3333C38.2533 42.3333 39.456 41.8533 40.3333 41M41 46.3333L43.6667 49L49 43.6667" stroke="#FD8D14" stroke-width="2" stroke-linecap="round" stroke-linejoin="round"/>
</svg>
