<svg width="74" height="74" viewBox="0 0 74 74" fill="none" xmlns="http://www.w3.org/2000/svg">
<circle cx="37" cy="37" r="36" fill="#006044" fill-opacity="0.1" stroke="#006044" stroke-width="2"/>
<path d="M31.6665 35.6667V30.3333C31.6665 28.9188 32.2284 27.5623 33.2286 26.5621C34.2288 25.5619 35.5853 25 36.9998 25C38.4143 25 39.7709 25.5619 40.7711 26.5621C41.7713 27.5623 42.3332 28.9188 42.3332 30.3333V35.6667M27.6665 38.3333C27.6665 37.6261 27.9475 36.9478 28.4476 36.4477C28.9476 35.9476 29.6259 35.6667 30.3332 35.6667H43.6665C44.3737 35.6667 45.052 35.9476 45.5521 36.4477C46.0522 36.9478 46.3332 37.6261 46.3332 38.3333V46.3333C46.3332 47.0406 46.0522 47.7189 45.5521 48.219C45.052 48.719 44.3737 49 43.6665 49H30.3332C29.6259 49 28.9476 48.719 28.4476 48.219C27.9475 47.7189 27.6665 47.0406 27.6665 46.3333V38.3333ZM35.6665 42.3333C35.6665 42.687 35.807 43.0261 36.057 43.2761C36.3071 43.5262 36.6462 43.6667 36.9998 43.6667C37.3535 43.6667 37.6926 43.5262 37.9426 43.2761C38.1927 43.0261 38.3332 42.687 38.3332 42.3333C38.3332 41.9797 38.1927 41.6406 37.9426 41.3905C37.6926 41.1405 37.3535 41 36.9998 41C36.6462 41 36.3071 41.1405 36.057 41.3905C35.807 41.6406 35.6665 41.9797 35.6665 42.3333Z" stroke="#006044" stroke-width="2" stroke-linecap="round" stroke-linejoin="round"/>
</svg>
