<svg width="74" height="74" viewBox="0 0 74 74" fill="none" xmlns="http://www.w3.org/2000/svg">
<circle cx="37" cy="37" r="36" fill="#2CD4D9" fill-opacity="0.1" stroke="#2CD4D9" stroke-width="2"/>
<path d="M26.3335 39.6667V35.6667C26.3335 32.8377 27.4573 30.1246 29.4577 28.1242C31.4581 26.1238 34.1712 25 37.0002 25C39.8291 25 42.5422 26.1238 44.5426 28.1242C46.543 30.1246 47.6668 32.8377 47.6668 35.6667V39.6667M26.3335 39.6667C26.3335 38.9594 26.6144 38.2811 27.1145 37.781C27.6146 37.281 28.2929 37 29.0002 37H30.3335C31.0407 37 31.719 37.281 32.2191 37.781C32.7192 38.2811 33.0002 38.9594 33.0002 39.6667V43.6667C33.0002 44.3739 32.7192 45.0522 32.2191 45.5523C31.719 46.0524 31.0407 46.3333 30.3335 46.3333H29.0002C28.2929 46.3333 27.6146 46.0524 27.1145 45.5523C26.6144 45.0522 26.3335 44.3739 26.3335 43.6667V39.6667ZM47.6668 39.6667C47.6668 38.9594 47.3859 38.2811 46.8858 37.781C46.3857 37.281 45.7074 37 45.0002 37H43.6668C42.9596 37 42.2813 37.281 41.7812 37.781C41.2811 38.2811 41.0002 38.9594 41.0002 39.6667V43.6667C41.0002 44.3739 41.2811 45.0522 41.7812 45.5523C42.2813 46.0524 42.9596 46.3333 43.6668 46.3333H45.0002M47.6668 39.6667V43.6667C47.6668 44.3739 47.3859 45.0522 46.8858 45.5523C46.3857 46.0524 45.7074 46.3333 45.0002 46.3333M45.0002 46.3333C45.0002 48.5427 41.4188 50.3333 37.0002 50.3333" stroke="#2CD4D9" stroke-width="2" stroke-linecap="round" stroke-linejoin="round"/>
</svg>
